<svg width="433" height="95" viewBox="0 0 433 95" fill="none" xmlns="http://www.w3.org/2000/svg">
<path d="M93.5037 95H89.3504C83.0671 95 76.7838 92.7804 71.1395 88.6186L68.0511 86.3989L64.9627 88.6186C59.4782 92.6139 54.0469 86.3989 47.6038 86.3989C41.0543 86.3989 33.9191 92.6139 28.4345 88.6186L25.4526 86.3989L22.4175 88.6186C16.7199 92.7804 10.4366 95 4.15335 95H0C2.82215 86.8984 12.5666 72.8037 46.7519 72.8037C57.4015 72.8037 62.7263 74.1355 62.7263 74.1355C66.3472 66.5333 72.4707 49.3312 68.0511 27.4124L73.6954 31.3522C75.4526 39.2874 78.7008 54.7693 72.311 76.4106C86.3152 81.1273 91.5868 89.4509 93.5037 95ZM100 31.6852C95.7934 25.6367 89.3504 21.2529 81.7891 20.2541C82.4281 21.031 83.0138 21.9188 83.5996 22.8621C86.6338 27.9115 88.038 33.8402 87.6068 39.7809C87.1757 45.7216 84.9318 51.3627 81.2034 55.8791C84.345 47.8329 84.0256 38.344 79.1267 30.4089C78.7008 29.965 78.4878 29.521 78.1683 29.0216C76.0383 25.8032 73.1629 23.1951 70.0745 21.3084C59.2652 24.9153 51.4377 35.4585 51.4377 47.8329C51.4377 50.7739 51.8637 53.5485 52.6092 56.1565C49.4143 51.5508 47.6038 46.0017 47.6038 39.8978C47.6038 30.6863 51.8637 22.5847 58.4665 17.4796C52.9286 17.0356 47.2311 18.3119 42.1725 21.6414C39.8296 23.1396 37.8062 24.9708 36.1022 27.0794C38.1789 21.8633 41.6933 17.3131 46.7519 13.9836C52.0985 10.3998 58.5257 8.99704 64.803 10.0438C63.2161 7.75035 61.3143 5.71241 59.1587 3.99533C56.9755 2.27512 54.5793 0.943341 52.0767 0C57.4015 0.166472 62.9393 1.99766 67.5719 5.60456C69.9148 7.43575 71.7785 9.65537 73.3759 12.0415C73.6954 12.0415 74.0149 11.986 74.3877 11.986C80.1172 11.9828 88.8938 13.9339 93.5037 17.4796C98.1137 21.0252 98.3142 25.9786 100 31.6852Z" fill="#0085FF"/>
<path d="M128.272 66C126.032 66 124.272 65.408 122.992 64.224C121.744 63.008 121.12 61.328 121.12 59.184V34.464C121.12 33.664 121.36 33.04 121.84 32.592C122.32 32.144 122.976 31.92 123.808 31.92C124.64 31.92 125.296 32.16 125.776 32.64C126.288 33.088 126.544 33.696 126.544 34.464V59.232C126.544 60 126.736 60.608 127.12 61.056C127.536 61.504 128.096 61.728 128.8 61.728H144.352C146.08 61.728 146.944 62.448 146.944 63.888C146.944 64.56 146.72 65.088 146.272 65.472C145.824 65.824 145.184 66 144.352 66H128.272ZM154.612 38.304C153.588 38.304 152.74 38.016 152.068 37.44C151.428 36.832 151.108 36.064 151.108 35.136C151.108 34.208 151.428 33.456 152.068 32.88C152.74 32.272 153.588 31.968 154.612 31.968C155.636 31.968 156.484 32.272 157.156 32.88C157.828 33.456 158.164 34.208 158.164 35.136C158.164 36.064 157.828 36.832 157.156 37.44C156.484 38.016 155.636 38.304 154.612 38.304ZM154.612 66.48C153.78 66.48 153.124 66.256 152.644 65.808C152.196 65.36 151.972 64.736 151.972 63.936V44.544C151.972 43.744 152.196 43.12 152.644 42.672C153.124 42.224 153.78 42 154.612 42C155.444 42 156.1 42.224 156.58 42.672C157.092 43.12 157.348 43.744 157.348 44.544V63.936C157.348 64.736 157.092 65.36 156.58 65.808C156.1 66.256 155.444 66.48 154.612 66.48ZM181.726 60.288C182.206 60.672 182.446 61.12 182.446 61.632C182.446 62.176 182.238 62.72 181.822 63.264C181.15 64.256 180.19 65.04 178.942 65.616C177.694 66.192 176.318 66.48 174.814 66.48C172.414 66.48 170.526 65.808 169.15 64.464C167.774 63.12 167.086 61.28 167.086 58.944V46.752H164.926C164.062 46.752 163.374 46.56 162.862 46.176C162.382 45.792 162.142 45.28 162.142 44.64C162.142 43.968 162.382 43.44 162.862 43.056C163.374 42.672 164.062 42.48 164.926 42.48H167.086V34.896C167.086 34.096 167.326 33.472 167.806 33.024C168.286 32.576 168.942 32.352 169.774 32.352C170.606 32.352 171.262 32.576 171.742 33.024C172.222 33.472 172.462 34.096 172.462 34.896V42.48H177.694C178.526 42.48 179.182 42.672 179.662 43.056C180.174 43.44 180.43 43.968 180.43 44.64C180.43 45.28 180.19 45.792 179.71 46.176C179.23 46.56 178.558 46.752 177.694 46.752H172.462V59.376C172.462 60.24 172.702 60.928 173.182 61.44C173.662 61.92 174.334 62.16 175.198 62.16C176.382 62.16 177.438 61.696 178.366 60.768C179.102 60.096 179.774 59.76 180.382 59.76C180.894 59.76 181.342 59.936 181.726 60.288ZM198.433 66.48C195.649 66.48 193.201 65.968 191.089 64.944C188.977 63.888 187.345 62.432 186.193 60.576C185.073 58.72 184.513 56.608 184.513 54.24C184.513 51.872 185.073 49.76 186.193 47.904C187.345 46.048 188.977 44.608 191.089 43.584C193.201 42.528 195.649 42 198.433 42C201.217 42 203.665 42.528 205.777 43.584C207.889 44.608 209.505 46.048 210.625 47.904C211.777 49.76 212.353 51.872 212.353 54.24C212.353 56.608 211.777 58.72 210.625 60.576C209.505 62.432 207.889 63.888 205.777 64.944C203.665 65.968 201.217 66.48 198.433 66.48ZM198.433 62.16C201.025 62.16 203.089 61.456 204.625 60.048C206.161 58.64 206.929 56.704 206.929 54.24C206.929 51.776 206.161 49.84 204.625 48.432C203.089 47.024 201.025 46.32 198.433 46.32C195.809 46.32 193.729 47.024 192.193 48.432C190.689 49.84 189.937 51.776 189.937 54.24C189.937 56.704 190.689 58.64 192.193 60.048C193.729 61.456 195.809 62.16 198.433 62.16ZM219.514 66.48C218.682 66.48 218.026 66.256 217.546 65.808C217.066 65.36 216.826 64.736 216.826 63.936V44.544C216.826 43.744 217.05 43.12 217.498 42.672C217.978 42.224 218.618 42 219.418 42C220.25 42 220.89 42.224 221.338 42.672C221.818 43.12 222.058 43.744 222.058 44.544V46.56C224.138 43.84 226.874 42.48 230.266 42.48H231.37C232.234 42.48 232.906 42.672 233.386 43.056C233.898 43.44 234.154 43.968 234.154 44.64C234.154 45.344 233.898 45.888 233.386 46.272C232.906 46.624 232.234 46.8 231.37 46.8H229.834C227.498 46.8 225.642 47.52 224.266 48.96C222.89 50.368 222.202 52.304 222.202 54.768V63.936C222.202 64.704 221.946 65.328 221.434 65.808C220.954 66.256 220.314 66.48 219.514 66.48ZM244.935 66.48C241.895 66.48 239.463 65.76 237.639 64.32C235.815 62.88 234.903 60.96 234.903 58.56C234.903 56.192 235.863 54.304 237.783 52.896C239.735 51.488 242.359 50.784 245.655 50.784C248.855 50.784 251.351 51.52 253.143 52.992V51.168C253.143 49.568 252.631 48.352 251.607 47.52C250.615 46.656 249.143 46.224 247.191 46.224C244.439 46.224 242.071 46.832 240.087 48.048C239.415 48.432 238.807 48.624 238.263 48.624C237.687 48.624 237.159 48.368 236.679 47.856C236.359 47.504 236.199 47.088 236.199 46.608C236.199 45.84 236.535 45.232 237.207 44.784C238.359 43.92 239.815 43.248 241.575 42.768C243.335 42.256 245.175 42 247.095 42C250.711 42 253.543 42.816 255.591 44.448C257.639 46.08 258.663 48.336 258.663 51.216V64.08C258.663 64.816 258.423 65.408 257.943 65.856C257.463 66.272 256.807 66.48 255.975 66.48C255.143 66.48 254.487 66.272 254.007 65.856C253.559 65.44 253.335 64.864 253.335 64.128V63.216C251.447 65.392 248.647 66.48 244.935 66.48ZM246.087 62.544C248.263 62.544 249.991 62.192 251.271 61.488C252.551 60.752 253.191 59.76 253.191 58.512C253.191 57.296 252.567 56.336 251.319 55.632C250.071 54.928 248.359 54.576 246.183 54.576C244.295 54.576 242.823 54.928 241.767 55.632C240.743 56.336 240.231 57.312 240.231 58.56C240.231 59.84 240.727 60.832 241.719 61.536C242.743 62.208 244.199 62.544 246.087 62.544ZM267.256 66.48C266.424 66.48 265.768 66.256 265.288 65.808C264.808 65.36 264.568 64.736 264.568 63.936V32.112C264.568 31.312 264.808 30.688 265.288 30.24C265.768 29.792 266.424 29.568 267.256 29.568C268.088 29.568 268.744 29.792 269.224 30.24C269.704 30.688 269.944 31.312 269.944 32.112V63.936C269.944 64.704 269.688 65.328 269.176 65.808C268.696 66.256 268.056 66.48 267.256 66.48ZM291.944 66C290.952 66 290.104 65.68 289.4 65.04C288.728 64.368 288.392 63.584 288.392 62.688C288.392 61.76 288.728 60.96 289.4 60.288C290.072 59.616 290.92 59.28 291.944 59.28C292.904 59.28 293.72 59.616 294.392 60.288C295.064 60.96 295.4 61.76 295.4 62.688C295.4 63.584 295.064 64.368 294.392 65.04C293.72 65.68 292.904 66 291.944 66ZM314.14 66.48C313.18 66.48 312.412 66.224 311.836 65.712C311.26 65.2 310.972 64.496 310.972 63.6V37.344H301.708C300.78 37.344 300.044 37.136 299.5 36.72C298.988 36.272 298.732 35.664 298.732 34.896C298.732 34.096 298.988 33.488 299.5 33.072C300.012 32.624 300.748 32.4 301.708 32.4H326.62C327.58 32.4 328.316 32.624 328.828 33.072C329.34 33.488 329.596 34.096 329.596 34.896C329.596 35.664 329.324 36.272 328.78 36.72C328.268 37.136 327.548 37.344 326.62 37.344H317.356V63.6C317.356 64.464 317.052 65.168 316.444 65.712C315.868 66.224 315.1 66.48 314.14 66.48ZM341.227 66C338.795 66 336.907 65.36 335.563 64.08C334.219 62.8 333.547 61.008 333.547 58.704V39.504C333.547 37.264 334.187 35.52 335.467 34.272C336.779 33.024 338.587 32.4 340.891 32.4H355.819C356.779 32.4 357.515 32.624 358.027 33.072C358.539 33.488 358.795 34.096 358.795 34.896C358.795 35.664 358.523 36.272 357.979 36.72C357.467 37.136 356.747 37.344 355.819 37.344H341.995C341.355 37.344 340.843 37.552 340.459 37.968C340.107 38.384 339.931 38.96 339.931 39.696V46.368H352.171C353.131 46.368 353.867 46.592 354.379 47.04C354.891 47.456 355.147 48.064 355.147 48.864C355.147 49.632 354.875 50.24 354.331 50.688C353.819 51.104 353.099 51.312 352.171 51.312H339.931V58.704C339.931 59.44 340.107 60.016 340.459 60.432C340.843 60.848 341.355 61.056 341.995 61.056H356.875C357.835 61.056 358.571 61.28 359.083 61.728C359.595 62.144 359.851 62.752 359.851 63.552C359.851 64.32 359.579 64.928 359.035 65.376C358.523 65.792 357.803 66 356.875 66H341.227ZM379.746 66.48C376.13 66.48 372.994 65.792 370.338 64.416C367.682 63.04 365.65 61.056 364.242 58.464C362.834 55.872 362.13 52.8 362.13 49.248C362.13 45.696 362.834 42.624 364.242 40.032C365.65 37.408 367.666 35.408 370.29 34.032C372.946 32.624 376.066 31.92 379.65 31.92C382.626 31.92 385.378 32.432 387.906 33.456C390.434 34.48 392.306 35.84 393.522 37.536C393.906 38.048 394.098 38.576 394.098 39.12C394.098 39.92 393.666 40.64 392.802 41.28C392.418 41.568 391.938 41.712 391.362 41.712C390.882 41.712 390.402 41.616 389.922 41.424C389.442 41.2 389.042 40.896 388.722 40.512C387.634 39.264 386.37 38.368 384.93 37.824C383.49 37.248 381.73 36.96 379.65 36.96C376.162 36.96 373.442 38.048 371.49 40.224C369.538 42.368 368.562 45.376 368.562 49.248C368.562 53.088 369.538 56.08 371.49 58.224C373.474 60.368 376.226 61.44 379.746 61.44C383.778 61.44 386.994 60.256 389.394 57.888C390.386 56.96 391.298 56.496 392.13 56.496C392.706 56.496 393.234 56.688 393.714 57.072C394.45 57.712 394.818 58.416 394.818 59.184C394.818 59.76 394.61 60.32 394.194 60.864C392.818 62.624 390.85 64 388.29 64.992C385.762 65.984 382.914 66.48 379.746 66.48ZM402.903 66.48C401.943 66.48 401.175 66.224 400.599 65.712C400.023 65.2 399.735 64.496 399.735 63.6V34.8C399.735 33.904 400.023 33.2 400.599 32.688C401.175 32.176 401.943 31.92 402.903 31.92C403.863 31.92 404.631 32.192 405.207 32.736C405.815 33.248 406.119 33.936 406.119 34.8V46.272H423.351V34.8C423.351 33.936 423.639 33.248 424.215 32.736C424.823 32.192 425.607 31.92 426.567 31.92C427.527 31.92 428.295 32.176 428.871 32.688C429.447 33.2 429.735 33.904 429.735 34.8V63.6C429.735 64.496 429.447 65.2 428.871 65.712C428.295 66.224 427.527 66.48 426.567 66.48C425.607 66.48 424.823 66.224 424.215 65.712C423.639 65.168 423.351 64.464 423.351 63.6V51.216H406.119V63.6C406.119 64.464 405.815 65.168 405.207 65.712C404.631 66.224 403.863 66.48 402.903 66.48Z" fill="white"/>
</svg>
