<svg xmlns="http://www.w3.org/2000/svg" viewBox="0 0 1440 320"><path fill="#0085FF" fill-opacity="1" d="M0,128L34.3,112C68.6,96,137,64,206,80C274.3,96,343,160,411,181.3C480,203,549,181,617,144C685.7,107,754,53,823,32C891.4,11,960,21,1029,48C1097.1,75,1166,117,1234,122.7C1302.9,128,1371,96,1406,80L1440,64L1440,320L1405.7,320C1371.4,320,1303,320,1234,320C1165.7,320,1097,320,1029,320C960,320,891,320,823,320C754.3,320,686,320,617,320C548.6,320,480,320,411,320C342.9,320,274,320,206,320C137.1,320,69,320,34,320L0,320Z"></path></svg>